<svg width="27" height="18" viewBox="0 0 27 18" fill="none" xmlns="http://www.w3.org/2000/svg">
<path d="M7.382 4.636C8.306 4.636 9.12733 4.84133 9.846 5.252C10.5647 5.648 11.122 6.242 11.518 7.034C11.9287 7.81133 12.134 8.75 12.134 9.85V17H9.054V10.268C9.054 9.3 8.812 8.55933 8.328 8.046C7.844 7.518 7.184 7.254 6.348 7.254C5.49733 7.254 4.82267 7.518 4.324 8.046C3.84 8.55933 3.598 9.3 3.598 10.268V17H0.518V0.72H3.598V6.33C3.994 5.802 4.522 5.39133 5.182 5.098C5.842 4.79 6.57533 4.636 7.382 4.636Z" fill="white"/>
<path d="M14.2709 10.862C14.2709 9.63 14.5129 8.53733 14.9969 7.584C15.4956 6.63067 16.1703 5.89733 17.0209 5.384C17.8716 4.87067 18.8176 4.614 19.8589 4.614C20.6509 4.614 21.4063 4.79 22.1249 5.142C22.8436 5.47933 23.4156 5.934 23.8409 6.506V0.72H26.9649V17H23.8409V15.196C23.4596 15.7973 22.9243 16.2813 22.2349 16.648C21.5456 17.0147 20.7463 17.198 19.8369 17.198C18.8103 17.198 17.8716 16.934 17.0209 16.406C16.1703 15.878 15.4956 15.1373 14.9969 14.184C14.5129 13.216 14.2709 12.1087 14.2709 10.862ZM23.8629 10.906C23.8629 10.158 23.7163 9.52 23.4229 8.992C23.1296 8.44933 22.7336 8.03867 22.2349 7.76C21.7363 7.46667 21.2009 7.32 20.6289 7.32C20.0569 7.32 19.5289 7.45933 19.0449 7.738C18.5609 8.01667 18.1649 8.42733 17.8569 8.97C17.5636 9.498 17.4169 10.1287 17.4169 10.862C17.4169 11.5953 17.5636 12.2407 17.8569 12.798C18.1649 13.3407 18.5609 13.7587 19.0449 14.052C19.5436 14.3453 20.0716 14.492 20.6289 14.492C21.2009 14.492 21.7363 14.3527 22.2349 14.074C22.7336 13.7807 23.1296 13.37 23.4229 12.842C23.7163 12.2993 23.8629 11.654 23.8629 10.906Z" fill="#DB2777"/>
</svg>
