<svg width="188" height="33" viewBox="0 0 188 33" fill="none" xmlns="http://www.w3.org/2000/svg">
<path d="M13.24 9.52C14.92 9.52 16.4133 9.89333 17.72 10.64C19.0267 11.36 20.04 12.44 20.76 13.88C21.5067 15.2933 21.88 17 21.88 19V32H16.28V19.76C16.28 18 15.84 16.6533 14.96 15.72C14.08 14.76 12.88 14.28 11.36 14.28C9.81333 14.28 8.58667 14.76 7.68 15.72C6.8 16.6533 6.36 18 6.36 19.76V32H0.76V2.4H6.36V12.6C7.08 11.64 8.04 10.8933 9.24 10.36C10.44 9.8 11.7733 9.52 13.24 9.52ZM25.7653 20.84C25.7653 18.6 26.2053 16.6133 27.0853 14.88C27.992 13.1467 29.2053 11.8133 30.7253 10.88C32.272 9.94667 33.992 9.48 35.8853 9.48C37.5386 9.48 38.9786 9.81333 40.2053 10.48C41.4586 11.1467 42.4586 11.9867 43.2053 13V9.84H48.8453V32H43.2053V28.76C42.4853 29.8 41.4853 30.6667 40.2053 31.36C38.952 32.0267 37.4986 32.36 35.8453 32.36C33.9786 32.36 32.272 31.88 30.7253 30.92C29.2053 29.96 27.992 28.6133 27.0853 26.88C26.2053 25.12 25.7653 23.1067 25.7653 20.84ZM43.2053 20.92C43.2053 19.56 42.9386 18.4 42.4053 17.44C41.872 16.4533 41.152 15.7067 40.2453 15.2C39.3386 14.6667 38.3653 14.4 37.3253 14.4C36.2853 14.4 35.3253 14.6533 34.4453 15.16C33.5653 15.6667 32.8453 16.4133 32.2853 17.4C31.752 18.36 31.4853 19.5067 31.4853 20.84C31.4853 22.1733 31.752 23.3467 32.2853 24.36C32.8453 25.3467 33.5653 26.1067 34.4453 26.64C35.352 27.1733 36.312 27.44 37.3253 27.44C38.3653 27.44 39.3386 27.1867 40.2453 26.68C41.152 26.1467 41.872 25.4 42.4053 24.44C42.9386 23.4533 43.2053 22.28 43.2053 20.92ZM59.9147 2.4V32H54.3147V2.4H59.9147ZM75.6075 14.44H71.7275V32H66.0475V14.44H63.5275V9.84H66.0475V8.72C66.0475 6 66.8208 4 68.3675 2.72C69.9142 1.44 72.2475 0.839999 75.3675 0.92V5.64C74.0075 5.61333 73.0608 5.84 72.5275 6.32C71.9942 6.8 71.7275 7.66667 71.7275 8.92V9.84H75.6075V14.44Z" fill="white"/>
<path d="M77.7966 20.84C77.7966 18.6 78.2366 16.6133 79.1166 14.88C80.0232 13.1467 81.2499 11.8133 82.7966 10.88C84.3432 9.94667 86.0632 9.48 87.9566 9.48C89.3966 9.48 90.7699 9.8 92.0766 10.44C93.3832 11.0533 94.4232 11.88 95.1966 12.92V2.4H100.877V32H95.1966V28.72C94.5032 29.8133 93.5299 30.6933 92.2766 31.36C91.0232 32.0267 89.5699 32.36 87.9166 32.36C86.0499 32.36 84.3432 31.88 82.7966 30.92C81.2499 29.96 80.0232 28.6133 79.1166 26.88C78.2366 25.12 77.7966 23.1067 77.7966 20.84ZM95.2366 20.92C95.2366 19.56 94.9699 18.4 94.4366 17.44C93.9032 16.4533 93.1832 15.7067 92.2766 15.2C91.3699 14.6667 90.3966 14.4 89.3566 14.4C88.3166 14.4 87.3566 14.6533 86.4766 15.16C85.5966 15.6667 84.8766 16.4133 84.3166 17.4C83.7832 18.36 83.5166 19.5067 83.5166 20.84C83.5166 22.1733 83.7832 23.3467 84.3166 24.36C84.8766 25.3467 85.5966 26.1067 86.4766 26.64C87.3832 27.1733 88.3432 27.44 89.3566 27.44C90.3966 27.44 91.3699 27.1867 92.2766 26.68C93.1832 26.1467 93.9032 25.4 94.4366 24.44C94.9699 23.4533 95.2366 22.28 95.2366 20.92ZM116.186 32.36C114.053 32.36 112.133 31.8933 110.426 30.96C108.719 30 107.373 28.6533 106.386 26.92C105.426 25.1867 104.946 23.1867 104.946 20.92C104.946 18.6533 105.439 16.6533 106.426 14.92C107.439 13.1867 108.813 11.8533 110.546 10.92C112.279 9.96 114.213 9.48 116.346 9.48C118.479 9.48 120.413 9.96 122.146 10.92C123.879 11.8533 125.239 13.1867 126.226 14.92C127.239 16.6533 127.746 18.6533 127.746 20.92C127.746 23.1867 127.226 25.1867 126.186 26.92C125.173 28.6533 123.786 30 122.026 30.96C120.293 31.8933 118.346 32.36 116.186 32.36ZM116.186 27.48C117.199 27.48 118.146 27.24 119.026 26.76C119.933 26.2533 120.653 25.5067 121.186 24.52C121.719 23.5333 121.986 22.3333 121.986 20.92C121.986 18.8133 121.426 17.2 120.306 16.08C119.213 14.9333 117.866 14.36 116.266 14.36C114.666 14.36 113.319 14.9333 112.226 16.08C111.159 17.2 110.626 18.8133 110.626 20.92C110.626 23.0267 111.146 24.6533 112.186 25.8C113.253 26.92 114.586 27.48 116.186 27.48ZM137.454 13.08C138.174 12.0133 139.16 11.1467 140.414 10.48C141.694 9.81333 143.147 9.48 144.774 9.48C146.667 9.48 148.374 9.94667 149.894 10.88C151.44 11.8133 152.654 13.1467 153.534 14.88C154.44 16.5867 154.894 18.5733 154.894 20.84C154.894 23.1067 154.44 25.12 153.534 26.88C152.654 28.6133 151.44 29.96 149.894 30.92C148.374 31.88 146.667 32.36 144.774 32.36C143.12 32.36 141.667 32.04 140.414 31.4C139.187 30.7333 138.2 29.88 137.454 28.84V32H131.854V2.4H137.454V13.08ZM149.174 20.84C149.174 19.5067 148.894 18.36 148.334 17.4C147.8 16.4133 147.08 15.6667 146.174 15.16C145.294 14.6533 144.334 14.4 143.294 14.4C142.28 14.4 141.32 14.6667 140.414 15.2C139.534 15.7067 138.814 16.4533 138.254 17.44C137.72 18.4267 137.454 19.5867 137.454 20.92C137.454 22.2533 137.72 23.4133 138.254 24.4C138.814 25.3867 139.534 26.1467 140.414 26.68C141.32 27.1867 142.28 27.44 143.294 27.44C144.334 27.44 145.294 27.1733 146.174 26.64C147.08 26.1067 147.8 25.3467 148.334 24.36C148.894 23.3733 149.174 22.2 149.174 20.84ZM161.803 7.2C160.816 7.2 159.99 6.89333 159.323 6.28C158.683 5.64 158.363 4.85333 158.363 3.92C158.363 2.98667 158.683 2.21333 159.323 1.6C159.99 0.959998 160.816 0.639998 161.803 0.639998C162.79 0.639998 163.603 0.959998 164.243 1.6C164.91 2.21333 165.243 2.98667 165.243 3.92C165.243 4.85333 164.91 5.64 164.243 6.28C163.603 6.89333 162.79 7.2 161.803 7.2ZM164.563 9.84V32H158.963V9.84H164.563ZM178.576 32.36C176.763 32.36 175.136 32.04 173.696 31.4C172.256 30.7333 171.109 29.84 170.256 28.72C169.429 27.6 168.976 26.36 168.896 25H174.536C174.643 25.8533 175.056 26.56 175.776 27.12C176.523 27.68 177.443 27.96 178.536 27.96C179.603 27.96 180.429 27.7467 181.016 27.32C181.629 26.8933 181.936 26.3467 181.936 25.68C181.936 24.96 181.563 24.4267 180.816 24.08C180.096 23.7067 178.936 23.3067 177.336 22.88C175.683 22.48 174.323 22.0667 173.256 21.64C172.216 21.2133 171.309 20.56 170.536 19.68C169.789 18.8 169.416 17.6133 169.416 16.12C169.416 14.8933 169.763 13.7733 170.456 12.76C171.176 11.7467 172.189 10.9467 173.496 10.36C174.829 9.77333 176.389 9.48 178.176 9.48C180.816 9.48 182.923 10.1467 184.496 11.48C186.069 12.7867 186.936 14.56 187.096 16.8H181.736C181.656 15.92 181.283 15.2267 180.616 14.72C179.976 14.1867 179.109 13.92 178.016 13.92C177.003 13.92 176.216 14.1067 175.656 14.48C175.123 14.8533 174.856 15.3733 174.856 16.04C174.856 16.7867 175.229 17.36 175.976 17.76C176.723 18.1333 177.883 18.52 179.456 18.92C181.056 19.32 182.376 19.7333 183.416 20.16C184.456 20.5867 185.349 21.2533 186.096 22.16C186.869 23.04 187.269 24.2133 187.296 25.68C187.296 26.96 186.936 28.1067 186.216 29.12C185.523 30.1333 184.509 30.9333 183.176 31.52C181.869 32.08 180.336 32.36 178.576 32.36Z" fill="#DB2777"/>
</svg>
